<?xml version="1.0" encoding="utf-8"?>
<!-- Generator: Adobe Illustrator 24.1.1, SVG Export Plug-In . SVG Version: 6.00 Build 0)  -->
<svg version="1.1" id="레이어_1" xmlns="http://www.w3.org/2000/svg" xmlns:xlink="http://www.w3.org/1999/xlink" x="0px"
	 y="0px" viewBox="0 0 178 154.8" style="enable-background:new 0 0 178 154.8;" xml:space="preserve">
<style type="text/css">
	.st0{fill:rgb(207 87 51);}
</style>
<g>
	<g>
		<path class="st0" d="M81.6,16.1c-8.3,0-12,2.4-13.5,4.8h28C92.3,15.1,81.6,16.1,81.6,16.1z"/>
		<path class="st0" d="M97.3,25.6c0-0.9-0.1-1.7-0.3-2.5H67c-0.3,1.2-0.2,2.2-0.1,2.5H97.3z"/>
		<g>
			<path class="st0" d="M110.8,52.6c-0.2,0-0.7-0.5-0.6-0.6c0.7-1.5,2.4-3.3,4.6-3.3c2.1,0,3.8,1.8,3.8,4.4c0,1.7-0.8,3.3-2.4,5.1
				c-1.2,1.5-2.1,2.3-2.7,3c-0.1,0.1,0,0.2,0.1,0.3c0.7,0.1,2.4,0.1,4.2,0.1c0.5,0,0.9-0.4,1.9-2.4c0.2,0,0.7,0.2,0.8,0.4
				c-0.1,0.7-0.8,3-1.2,3.8c0,0.1-0.3,0.2-1.3,0.2c-1.4,0-4.2-0.1-6.2-0.1c-0.4,0-0.9,0-1.2,0c-0.1-0.1-0.1-0.5-0.1-0.7
				c1.2-1.1,2.4-2.3,4.1-4.5c1.2-1.6,1.9-3.2,1.9-4.7c0-1.6-0.7-3-2.5-3C112.7,50.7,111.7,51.5,110.8,52.6z"/>
			<path class="st0" d="M54.2,63.6c-0.6,0-2.1-0.1-3.9-0.1c-1.9,0-3,0-3.6,0.1c-0.1-0.1-0.1-0.8,0-1c0.7-0.1,1.3-0.2,1.7-0.3
				c0.8-0.2,0.9-0.7,0.9-1.8c0.1-2.6,0.1-6.5,0.1-10.6c0-0.1-0.1-0.2-0.2-0.2h-2.7c-0.4,0-0.7,0.1-1,0.7c-0.3,0.5-0.6,1.3-0.9,2.4
				c-0.1,0.1-0.9-0.1-1-0.3c0.2-1.1,0.4-3.2,0.5-4.3c0-0.1,0.3-0.2,0.4-0.1c0.4,0.2,0.9,0.3,1.9,0.3h8.4c1.2,0,1.8,0,2.4-0.4
				c0.1,0,0.3,0.1,0.3,0.1c-0.2,1-0.4,3.2-0.5,4.5c-0.1,0.1-0.9,0.1-1,0c-0.1-1-0.2-1.9-0.4-2.3c-0.2-0.5-0.5-0.7-0.9-0.7
				c-1.2,0-2.4,0-3,0c-0.1,0-0.1,0.1-0.1,0.2c0,3.7,0,10.1,0.1,11.4c0,0.4,0.2,0.8,0.7,1c0.4,0.1,0.9,0.2,1.9,0.3
				C54.4,62.8,54.3,63.5,54.2,63.6z"/>
			<path class="st0" d="M58,48.4c0.5,0,1.9,0.1,3.1,0.1c1.2,0,2.6-0.1,3.2-0.1c0.1,0.1,0.1,0.8,0,0.9c-0.6,0.1-1,0.1-1.3,0.2
				c-0.5,0.1-0.6,0.4-0.7,1.2c-0.1,1,0,2.8,0,4.9c0,2.3,0,4.5,0.1,5.4c0,0.8,0.1,1.1,0.9,1.3c0.3,0.1,0.9,0.2,1.5,0.3
				c0.1,0.1,0,0.9-0.1,1c-0.5,0-2.1-0.1-3.3-0.1c-1.3,0-3,0.1-3.4,0.1c-0.1-0.1-0.1-0.9,0-1c0.6-0.1,0.9-0.1,1.3-0.2
				c0.7-0.2,0.8-0.5,0.9-1c0.1-0.7,0.1-2.1,0.1-6.1c0-2,0-3.4,0-4.6c0-0.7-0.1-0.9-0.6-1.1c-0.4-0.1-0.8-0.2-1.5-0.3
				C57.8,49.2,57.9,48.5,58,48.4z"/>
			<path class="st0" d="M65.3,48.4c1,0,2.1,0.1,4.5,0.1c0.1,0.5,0.2,0.9,0.4,1.5c1.1,2.5,3.8,8.6,4.2,9.4c0,0,0.1,0,0.1,0
				c0.4-0.8,3.3-7.2,4.2-9.6c0.2-0.5,0.3-0.9,0.4-1.2c2.4,0,3.4-0.1,4.4-0.1c0.1,0.1,0.1,0.8,0,0.9c-0.7,0.1-1.3,0.2-1.6,0.3
				c-0.3,0.1-0.6,0.3-0.6,0.9c0,1.5,0.1,8.8,0.3,10.4c0.1,0.9,0.2,1.2,0.9,1.4c0.3,0.1,0.7,0.1,1.3,0.2c0.1,0.2,0.1,0.8,0,1
				c-0.7,0-1.7-0.1-3.2-0.1c-1.3,0-2.6,0-3.3,0.1c-0.1-0.2-0.1-0.8,0-1c0.5-0.1,1-0.2,1.3-0.3c0.5-0.2,0.6-0.6,0.6-1
				c0-1.7,0-7.3,0-9.6c0,0-0.1-0.1-0.1,0c-0.6,1.5-4.1,9.3-4.9,11.7c-0.1,0.1-0.8,0.1-0.9,0.1c-0.6-2-3.5-8.9-4.6-11.7
				c0,0-0.1,0-0.1,0.1c-0.1,2.2-0.4,6.6-0.5,9c0,0.8,0,1.1,0.8,1.4c0.4,0.1,0.9,0.2,1.6,0.3c0.1,0.1,0.1,0.9-0.1,1
				c-0.4,0-1.8-0.1-3-0.1c-1.3,0-2.5,0.1-2.9,0.1c-0.1-0.1-0.1-0.8,0-1c0.5-0.1,0.9-0.1,1.3-0.2c0.7-0.2,0.8-0.5,0.9-1.5
				c0.3-2.1,0.7-7.7,0.8-10.1c0-0.4-0.2-0.9-0.6-1c-0.4-0.1-0.9-0.2-1.7-0.4C65.2,49.3,65.2,48.5,65.3,48.4z"/>
			<path class="st0" d="M84.2,48.4c0.6,0,2.1,0.1,3.4,0.1h4.6c0.9,0,2.1,0,2.6-0.1c0,0,0.1,0.1,0.1,0.1c-0.2,0.7-0.4,2.4-0.4,3.5
				c-0.1,0.2-0.9,0.1-1,0c0-0.7-0.1-1-0.2-1.4c-0.2-0.6-0.4-0.8-1-0.9c-0.3,0-3.3,0-3.5,0c-0.2,0-0.3,0.4-0.3,0.5c0,1.7,0,3.1,0,4.7
				c0,0,0.1,0.2,0.1,0.2c1.2,0,2.5,0,3.4-0.1c0.3,0,0.5-0.3,0.6-0.6c0.1-0.3,0.2-0.7,0.2-1.1c0.2-0.1,0.9,0,1,0.1
				c0,0.6-0.2,1.5-0.2,2.4c0,0.8,0,1.6,0,2.4c-0.1,0.1-0.9,0.1-1.1,0c-0.1-0.6-0.1-0.8-0.2-1.1c-0.1-0.4-0.3-0.5-0.6-0.6
				c-0.7-0.1-2.2-0.1-3.3-0.1c-0.1,0-0.1,0.1-0.1,0.2c0,1.6,0,3.5,0,4.4c0,0.4,0.2,0.9,0.5,1c0.5,0.1,3.3,0.1,3.8,0.1
				c0.6,0,0.9-0.2,1.4-0.9c0.4-0.5,0.8-1.5,1-2.1c0.2,0,0.8,0.2,0.9,0.4c-0.1,0.8-0.6,2.6-1,3.5c-0.1,0.3-0.3,0.5-1.4,0.5
				c-2.4,0-4.6-0.1-6.2-0.1c-1.5,0-3,0.1-4,0.1c-0.1-0.1-0.1-0.8,0-1c0.8-0.1,1.5-0.2,1.9-0.3c0.5-0.1,0.7-0.5,0.7-1.2
				c0-0.4,0-3,0-5.7c0-2.1,0-4.2,0-4.6c0-0.8-0.1-1-0.7-1.2c-0.3-0.1-0.7-0.2-1.4-0.3C84.1,49.2,84.1,48.5,84.2,48.4z"/>
			<path class="st0" d="M110.1,49.2c-0.7,2.9-5.7,13.2-6.2,15c0,0.1-0.1,0.1-0.2,0.1c-0.3,0-0.9-0.3-1.1-0.5c-0.1,0,0-0.3,0-0.4
				c1.2-2.8,5-10.2,5.5-12.2c0,0-0.1-0.1-0.1-0.1c-0.8,0-4.2,0-5.3,0c-0.7,0-0.9,0.2-1.8,2.1c-0.1,0.1-0.8-0.2-0.9-0.3
				c0.3-1,0.7-2.9,0.9-4.2c0.3,0.1,1.1,0.2,1.8,0.2h4.5c0.8,0,1.9,0,2.6,0C110,48.9,110.1,49.2,110.1,49.2z"/>
		</g>
		<path class="st0" d="M66.8,86.8c0,0.9,0.1,1.7,0.3,2.5H97c0.3-1.1,0.2-2.1,0.2-2.5H66.8z"/>
		<path class="st0" d="M82.5,96.1c8.2,0,11.9-2.3,13.5-4.7H68.1C71.9,97.1,82.5,96.1,82.5,96.1z"/>
		<path class="st0" d="M100.8,41.9c-2.8,0-3.5-3.8-3.5-3.8s0-1.4,0-10.2H66.9v14.4c-8.3,0-16,0-19.1,0c-2,0-3.5,1-4.5,2.5h23.5h53.7
			c-1.9-2.6-4-2.9-4-2.9S103.6,41.9,100.8,41.9z"/>
		<path class="st0" d="M97.2,67.2H85.9h-2.2h-6.1h-3.2h-5.2h-0.5h-0.3h-2.2h-0.8H43.3c1.9,2.8,4.2,3.1,4.2,3.1s13.1,0,15.9,0
			c2.8,0,3.5,3.8,3.5,3.8s0,1.4,0,10.4h2.4v0h28.1V69.9c8.2,0,15.9,0,19,0c2.2,0,3.6-1.1,4.6-2.8H97.2z"/>
		<g>
			<path class="st0" d="M71.3,8.8l0-0.2c0.6-0.1,0.8-0.3,0.7-0.8L71.2,3c-0.1-0.4-0.3-0.5-0.9-0.4l0-0.2L75,1.6L75.9,3l-0.1,0.1
				c-0.5-0.5-1-1.3-2.4-1l-0.9,0.1c-0.5,0.1-0.7,0.3-0.6,0.7l0.4,2.2l1.4-0.2c0.6-0.1,0.9-0.4,0.8-1.3l0.2,0L75,6.1l-0.2,0
				c-0.1-0.8-0.5-1.1-1.2-1l-1.4,0.2l0.4,2.4c0.1,0.4,0.3,0.6,0.8,0.5l0.8-0.1c1-0.2,1.6-0.7,2.2-1.8l0.2,0L76.3,8L71.3,8.8z"/>
			<path class="st0" d="M77.7,7.8l0-0.2c0.5,0,0.7-0.3,0.9-0.6l1.6-2.5l-1.8-2.6c-0.1-0.2-0.3-0.4-0.9-0.4l0-0.2l2.3-0.1l0,0.2
				c-0.5,0-0.9,0.1-0.9,0.3c0,0,0,0.1,0,0.1L80.5,4l1.3-2.1c0.1-0.1,0.1-0.2,0.1-0.3c0-0.2-0.3-0.3-0.9-0.2l0-0.2l2-0.1l0,0.2
				c-0.5,0-0.7,0.2-1,0.7l-1.4,2.2l1.9,2.8c0.3,0.4,0.5,0.5,0.9,0.5l0,0.2l-2.3,0.1l0-0.2c0.5,0,0.9-0.1,0.9-0.3C82,7.1,82,7,81.9,7
				l-1.6-2.3l-1.4,2.3c-0.1,0.1-0.1,0.2-0.1,0.3c0,0.2,0.3,0.3,0.9,0.3l0,0.2L77.7,7.8z"/>
			<path class="st0" d="M90.4,4.9c-0.2,1.7-1.3,3.3-3.2,3.1c-1.9-0.2-2.6-2-2.5-3.7c0.2-1.7,1.3-3.3,3.1-3.1
				C89.8,1.4,90.6,3.2,90.4,4.9z M85.3,4.4c-0.2,1.6,0.4,3.2,1.9,3.4c1.5,0.2,2.4-1.4,2.6-2.9c0.2-1.6-0.4-3.2-1.9-3.4
				C86.4,1.3,85.5,2.8,85.3,4.4z"/>
			<path class="st0" d="M91.1,8.3l0.1-0.2c0.6,0.2,0.9,0,1-0.4l1.2-4.8c0.1-0.4-0.1-0.5-0.7-0.7L92.8,2l1.6,0.4l0.6,6l3.5-5l1.6,0.4
				L100,4.1c-0.7-0.2-0.9-0.1-1,0.3l-1.2,4.8c-0.1,0.4,0,0.7,0.7,0.8l-0.1,0.2l-2.2-0.6l0.1-0.2c0.6,0.2,0.9,0,1-0.4l1.4-5.2l-0.1,0
				l-3.9,5.5l-0.1,0l-0.7-6.5l-0.1,0l-1.3,5.1c-0.1,0.4,0,0.7,0.7,0.8L93,8.8L91.1,8.3z"/>
			<path class="st0" d="M99.1,10.5l0.1-0.2c0.6,0.2,0.9,0.2,1-0.2l1.9-4.5c0.2-0.4,0-0.6-0.6-0.9l0.1-0.2l4.4,1.9l0,1.7l-0.2,0
				c-0.2-0.7-0.2-1.6-1.5-2.2l-0.8-0.4c-0.4-0.2-0.7-0.1-0.9,0.2l-0.9,2l1.3,0.5c0.6,0.3,1,0.1,1.3-0.7l0.2,0.1l-1,2.3l-0.2-0.1
				c0.3-0.7,0.1-1.2-0.4-1.5l-1.3-0.5l-1,2.2c-0.2,0.4,0,0.7,0.4,0.9l0.8,0.3c1,0.4,1.7,0.3,2.8-0.4l0.1,0.1l-1.2,1.2L99.1,10.5z"/>
			<path class="st0" d="M105.1,13.1l0.1-0.2c0.6,0.3,0.8,0.3,1.1-0.1l2.5-4.2c0.2-0.3,0.1-0.6-0.5-0.9l0.1-0.2L111,9
				c1.2,0.7,1.5,1.7,1,2.5c-0.4,0.7-1.3,1.1-2.4,0.5l-0.1,3c0,0.4,0.2,0.6,0.6,0.8l-0.1,0.2l-1.1-0.6l0.1-3.7l-1.1-0.6l-1.2,2
				c-0.2,0.4-0.1,0.7,0.4,1l-0.1,0.2L105.1,13.1z M108.1,10.9l1.4,0.9c0.9,0.5,1.5,0.1,1.9-0.5c0.4-0.7,0.2-1.5-0.6-2l-0.7-0.4
				c-0.4-0.2-0.6-0.2-0.8,0.1L108.1,10.9z"/>
			<path class="st0" d="M110.6,16.5l0.1-0.2c0.5,0.4,0.8,0.4,1.1,0l3-3.8c0.3-0.3,0.2-0.6-0.3-1l0.1-0.2l3.7,3L118,16l-0.2,0
				c0-0.7,0.2-1.6-0.9-2.5l-0.7-0.6c-0.4-0.3-0.7-0.3-0.9,0l-1.4,1.7l1.1,0.9c0.5,0.4,0.9,0.4,1.5-0.3l0.2,0.1l-1.6,2l-0.2-0.1
				c0.5-0.6,0.5-1.1,0-1.5l-1.1-0.9l-1.5,1.9c-0.3,0.3-0.2,0.6,0.2,0.9l0.7,0.5c0.8,0.7,1.6,0.7,2.8,0.4l0.1,0.2l-1.5,0.9
				L110.6,16.5z"/>
			<path class="st0" d="M117.9,22.9l0.2-0.1c0.4,0.5,0.7,0.5,1,0.3l3.7-3.1c0.3-0.3,0.3-0.6-0.1-1l0.2-0.1l3.1,3.6l-0.8,1.5l-0.2,0
				c0.1-0.7,0.6-1.5-0.4-2.6l-0.6-0.7c-0.3-0.4-0.6-0.4-0.9-0.2l-1.7,1.4l0.9,1.1c0.4,0.5,0.8,0.6,1.5,0l0.1,0.2l-1.9,1.6l-0.1-0.2
				c0.6-0.5,0.7-1,0.3-1.5l-0.9-1.1l-1.9,1.6c-0.3,0.3-0.3,0.6,0,1L120,25c0.7,0.8,1.4,1,2.7,0.9l0,0.2l-1.6,0.6L117.9,22.9z"/>
			<path class="st0" d="M122.1,27.8l0.2-0.1c0.3,0.5,0.6,0.5,1,0.5l2.9,0.1l1.3-2.9c0.1-0.2,0.2-0.4-0.1-0.9l0.2-0.1l1.2,1.9
				l-0.2,0.1c-0.3-0.4-0.5-0.7-0.7-0.6c0,0-0.1,0.1-0.1,0.1l-1.1,2.4l2.4,0.1c0.2,0,0.3,0,0.3-0.1c0.2-0.1,0.1-0.4-0.2-0.9l0.2-0.1
				l1.1,1.7l-0.2,0.1c-0.2-0.4-0.6-0.5-1.1-0.5l-2.6-0.1l-1.4,3.1c-0.2,0.4-0.2,0.6,0.1,1l-0.2,0.1l-1.2-1.9l0.2-0.1
				c0.3,0.5,0.5,0.7,0.7,0.6c0,0,0.1-0.1,0.1-0.2l1.2-2.6l-2.7-0.1c-0.1,0-0.2,0-0.3,0.1c-0.2,0.1-0.1,0.4,0.2,0.9l-0.2,0.1
				L122.1,27.8z"/>
			<path class="st0" d="M131,37.4c-1.6,0.7-3.5,0.6-4.3-1.2c-0.8-1.7,0.4-3.3,1.9-4c1.6-0.7,3.5-0.6,4.3,1.1
				C133.7,35.1,132.5,36.7,131,37.4z M128.8,32.7c-1.4,0.7-2.6,2-2,3.3c0.6,1.4,2.4,1.4,3.8,0.7c1.4-0.7,2.6-2,1.9-3.4
				C132,32.1,130.3,32.1,128.8,32.7z"/>
			<path class="st0" d="M128.4,39.6l0.2-0.1c0.2,0.6,0.4,0.8,0.8,0.7l4.8-1.3c0.3-0.1,0.4-0.3,0.2-1l0.2-0.1l0.4,1.6l-4.9,3.6l6,0.5
				l0.5,1.6l-0.2,0.1c-0.2-0.7-0.4-0.8-0.7-0.7l-4.8,1.3c-0.4,0.1-0.6,0.4-0.4,1l-0.2,0.1l-0.6-2.2l0.2-0.1c0.2,0.6,0.5,0.8,0.8,0.7
				l5.2-1.4l0-0.1l-6.7-0.6l0-0.1l5.3-3.9l0-0.1l-5,1.4c-0.4,0.1-0.5,0.4-0.4,1l-0.2,0.1L128.4,39.6z"/>
			<path class="st0" d="M130.5,47.7l0.2,0c0.1,0.6,0.3,0.8,0.7,0.8l4.8-0.6c0.4-0.1,0.5-0.3,0.5-0.9l0.2,0l0.6,4.7l-1.5,0.8
				l-0.1-0.1c0.5-0.5,1.3-1,1.1-2.4l-0.1-0.9c-0.1-0.5-0.2-0.7-0.7-0.6l-2.2,0.3l0.2,1.4c0.1,0.6,0.4,0.9,1.2,0.8l0,0.2l-2.5,0.3
				l0-0.2c0.8-0.1,1.1-0.5,1-1.1l-0.2-1.4l-2.4,0.3c-0.4,0.1-0.6,0.3-0.5,0.8l0.1,0.8c0.1,1,0.6,1.6,1.7,2.2l-0.1,0.2l-1.7-0.4
				L130.5,47.7z"/>
			<path class="st0" d="M131.3,54.2l0.2,0c0,0.7,0.2,0.9,0.6,0.9l4.9,0.1c0.4,0,0.5-0.2,0.6-0.9l0.2,0l0,3c0,1.4-0.7,2.1-1.6,2.1
				c-0.9,0-1.6-0.6-1.6-1.8l-2.6,1.4c-0.3,0.2-0.4,0.4-0.4,0.9l-0.2,0l0-1.2l3.3-1.7l0-1.3l-2.4,0c-0.4,0-0.6,0.2-0.7,0.9l-0.2,0
				L131.3,54.2z M134.8,55.6l0,1.7c0,1,0.7,1.4,1.4,1.4c0.9,0,1.4-0.6,1.4-1.5l0-0.8c0-0.4-0.1-0.7-0.5-0.7L134.8,55.6z"/>
			<path class="st0" d="M131.2,60.7l0.2,0c-0.1,0.6,0.1,0.9,0.5,0.9l4.8,0.7c0.4,0.1,0.6-0.2,0.7-0.8l0.2,0l-0.7,4.7l-1.6,0.4
				l-0.1-0.1c0.6-0.4,1.5-0.6,1.7-2l0.1-0.9c0.1-0.5-0.1-0.7-0.5-0.8l-2.2-0.3l-0.2,1.4c-0.1,0.6,0.1,1,1,1.1l0,0.2l-2.5-0.4l0-0.2
				c0.8,0.1,1.2-0.2,1.3-0.8l0.2-1.4l-2.4-0.3c-0.4-0.1-0.7,0.2-0.7,0.6l-0.1,0.8c-0.2,1,0.2,1.7,1.1,2.6l-0.1,0.2l-1.5-0.8
				L131.2,60.7z"/>
			<path class="st0" d="M129.4,70.2l0.2,0.1c-0.2,0.6-0.1,0.9,0.3,1l4.6,1.6c0.4,0.1,0.6,0,0.8-0.6l0.2,0.1l-1.6,4.5l-1.7,0.1l0-0.2
				c0.7-0.2,1.6-0.3,2.1-1.6l0.3-0.8c0.2-0.4,0.1-0.7-0.3-0.9l-2.1-0.7l-0.5,1.3c-0.2,0.6-0.1,1,0.7,1.3l-0.1,0.2l-2.4-0.9l0.1-0.2
				c0.8,0.3,1.2,0.1,1.4-0.5l0.5-1.3l-2.3-0.8c-0.4-0.1-0.7,0-0.8,0.5l-0.3,0.8c-0.4,1-0.2,1.7,0.5,2.8L129,76l-1.3-1.1L129.4,70.2z
				"/>
			<path class="st0" d="M127.2,76.3l0.2,0.1c-0.3,0.5-0.1,0.7,0.1,1.1l1.4,2.6l3.2-0.3c0.2,0,0.5-0.1,0.7-0.6l0.2,0.1l-1.1,2
				l-0.2-0.1c0.2-0.5,0.3-0.8,0.2-0.9c0,0-0.1,0-0.1,0l-2.6,0.2l1.2,2.1c0.1,0.1,0.1,0.2,0.2,0.3c0.2,0.1,0.4-0.1,0.6-0.7l0.2,0.1
				l-0.9,1.8l-0.2-0.1c0.2-0.4,0.2-0.7-0.1-1.2l-1.2-2.2l-3.4,0.3c-0.5,0-0.6,0.2-0.8,0.6l-0.2-0.1l1.1-2l0.2,0.1
				c-0.2,0.5-0.4,0.8-0.2,0.9c0,0,0.1,0,0.2,0l2.8-0.3l-1.3-2.4c-0.1-0.1-0.1-0.2-0.2-0.2c-0.2-0.1-0.4,0.1-0.7,0.6l-0.2-0.1
				L127.2,76.3z"/>
			<path class="st0" d="M123.5,88.8c-1.4-1-2.2-2.7-1.1-4.3c1.1-1.5,3-1.3,4.4-0.3c1.4,1,2.3,2.7,1.2,4.3
				C126.8,89.9,124.9,89.7,123.5,88.8z M126.4,84.6c-1.3-0.9-3-1.2-3.9,0c-0.9,1.3,0,2.8,1.3,3.7c1.3,0.9,3,1.2,3.9,0
				C128.6,87,127.7,85.5,126.4,84.6z"/>
			<path class="st0" d="M120.2,87.7l0.2,0.2c-0.5,0.5-0.5,0.7-0.1,1.1l3.6,3.4c0.3,0.3,0.5,0.2,1-0.3l0.2,0.2l-1.1,1.2l-5.6-2.4
				l2.6,5.5l-1.2,1.2l-0.2-0.2c0.5-0.5,0.5-0.7,0.2-1l-3.6-3.4c-0.3-0.3-0.6-0.3-1.1,0.2l-0.2-0.2l1.6-1.7l0.2,0.2
				c-0.5,0.5-0.4,0.8-0.1,1.1l3.9,3.7l0.1-0.1l-2.9-6.1l0.1-0.1l6.1,2.6l0.1-0.1l-3.8-3.6c-0.3-0.3-0.6-0.3-1.1,0.2l-0.2-0.2
				L120.2,87.7z"/>
			<path class="st0" d="M114.3,93.6l0.1,0.2c-0.5,0.4-0.6,0.7-0.3,1l3,3.9c0.3,0.3,0.5,0.3,1-0.1l0.1,0.2l-3.8,2.9l-1.4-0.8l0.1-0.2
				c0.7,0.2,1.5,0.6,2.6-0.2l0.7-0.5c0.4-0.3,0.5-0.6,0.2-0.9l-1.3-1.7l-1.1,0.8c-0.5,0.4-0.6,0.8-0.1,1.5l-0.2,0.1l-1.5-2l0.2-0.1
				c0.5,0.6,1,0.7,1.5,0.3l1.1-0.8l-1.5-1.9c-0.3-0.3-0.6-0.3-1-0.1l-0.7,0.5c-0.8,0.6-1.1,1.4-1,2.6l-0.2,0l-0.5-1.6L114.3,93.6z"
				/>
			<path class="st0" d="M109.1,97.5l0.1,0.2c-0.6,0.3-0.6,0.6-0.4,1l2.4,4.2c0.2,0.3,0.4,0.4,1,0l0.1,0.2l-2.6,1.5
				c-1.2,0.7-2.2,0.5-2.6-0.3c-0.4-0.7-0.3-1.7,0.7-2.3l-2.6-1.5c-0.3-0.2-0.6-0.1-1,0.1l-0.1-0.2l1.1-0.6l3.2,1.9l1.1-0.6l-1.2-2.1
				c-0.2-0.4-0.5-0.4-1.1-0.1l-0.1-0.2L109.1,97.5z M109.6,101.3l-1.5,0.8c-0.9,0.5-0.8,1.3-0.4,1.9c0.4,0.7,1.2,0.9,2,0.4l0.7-0.4
				c0.4-0.2,0.5-0.5,0.3-0.8L109.6,101.3z"/>
			<path class="st0" d="M103.5,100.7l0.1,0.2c-0.6,0.2-0.7,0.5-0.6,0.9l1.8,4.5c0.2,0.4,0.4,0.4,1,0.2l0.1,0.2l-4.4,1.8l-1.2-1.2
				l0.1-0.1c0.6,0.3,1.3,1,2.6,0.5l0.8-0.3c0.4-0.2,0.6-0.4,0.4-0.8l-0.8-2l-1.3,0.5c-0.6,0.2-0.8,0.6-0.5,1.4l-0.2,0.1l-1-2.4
				l0.2-0.1c0.3,0.7,0.8,0.9,1.3,0.7l1.3-0.5l-0.9-2.3c-0.2-0.4-0.5-0.5-0.9-0.3l-0.8,0.3c-1,0.4-1.4,1-1.7,2.3l-0.2,0l0-1.7
				L103.5,100.7z"/>
			<path class="st0" d="M94.3,104l0,0.2c-0.6,0.1-0.8,0.3-0.7,0.8l0.9,4.8c0.1,0.4,0.3,0.5,1,0.4l0,0.2l-4.7,0.9l-0.9-1.4l0.1-0.1
				c0.5,0.5,1.1,1.2,2.4,1l0.9-0.2c0.5-0.1,0.7-0.3,0.6-0.7l-0.4-2.2l-1.4,0.3c-0.6,0.1-0.9,0.4-0.8,1.3l-0.2,0l-0.5-2.5l0.2,0
				c0.2,0.8,0.6,1.1,1.2,1l1.4-0.3l-0.5-2.4c-0.1-0.4-0.4-0.6-0.8-0.5l-0.8,0.2c-1,0.2-1.6,0.7-2.1,1.9l-0.2,0l0.3-1.7L94.3,104z"/>
			<path class="st0" d="M88,105.2l0,0.2c-0.5,0-0.7,0.3-0.9,0.7l-1.5,2.5l1.9,2.6c0.1,0.2,0.3,0.4,0.9,0.3l0,0.2l-2.3,0.1l0-0.2
				c0.5,0,0.9-0.1,0.9-0.3c0,0,0-0.1-0.1-0.1l-1.5-2.1l-1.2,2.1c-0.1,0.1-0.1,0.2-0.1,0.3c0,0.2,0.3,0.2,0.9,0.2l0,0.2l-2,0.1l0-0.2
				c0.5,0,0.7-0.2,1-0.7l1.3-2.2l-2-2.7c-0.3-0.4-0.5-0.5-0.9-0.4l0-0.2l2.3-0.1l0,0.2c-0.5,0-0.9,0.1-0.8,0.3c0,0.1,0,0.1,0.1,0.2
				l1.7,2.3l1.4-2.3c0.1-0.1,0.1-0.2,0.1-0.3c0-0.2-0.3-0.3-0.9-0.2l0-0.2L88,105.2z"/>
			<path class="st0" d="M75.4,108.3c0.1-1.7,1.2-3.3,3.2-3.2c1.9,0.1,2.7,1.9,2.5,3.6c-0.1,1.7-1.2,3.3-3.1,3.2
				C76,111.7,75.2,110,75.4,108.3z M80.5,108.7c0.1-1.6-0.5-3.2-1.9-3.3c-1.5-0.1-2.4,1.4-2.5,3c-0.1,1.6,0.5,3.2,2,3.4
				C79.5,111.8,80.3,110.3,80.5,108.7z"/>
			<path class="st0" d="M74.6,104.9l-0.1,0.2c-0.7-0.2-0.9,0-1,0.4l-1.2,4.8c-0.1,0.4,0.1,0.5,0.7,0.7l-0.1,0.2l-1.6-0.4l-0.7-6
				l-3.4,5l-1.6-0.4l0.1-0.2c0.7,0.2,0.9,0.1,1-0.3l1.2-4.8c0.1-0.4,0-0.7-0.7-0.8l0.1-0.2l2.2,0.5l-0.1,0.2c-0.6-0.2-0.9,0-1,0.4
				l-1.3,5.2l0.1,0l3.7-5.6l0.1,0l0.8,6.5l0.1,0l1.2-5.1c0.1-0.4,0-0.7-0.7-0.8l0.1-0.2L74.6,104.9z"/>
			<path class="st0" d="M66.5,102.9l-0.1,0.2c-0.6-0.2-0.9-0.2-1,0.3l-1.8,4.5c-0.2,0.4,0,0.6,0.6,0.9l-0.1,0.2l-4.4-1.8l0-1.7
				l0.2,0c0.2,0.7,0.2,1.6,1.5,2.1l0.8,0.3c0.4,0.2,0.7,0.1,0.9-0.3l0.8-2l-1.3-0.5c-0.6-0.2-1-0.1-1.3,0.7l-0.2-0.1l1-2.4l0.2,0.1
				c-0.3,0.7-0.1,1.2,0.5,1.4l1.3,0.5l0.9-2.3c0.2-0.4,0-0.7-0.4-0.9l-0.8-0.3c-1-0.4-1.7-0.2-2.8,0.4l-0.1-0.1l1.2-1.2L66.5,102.9z
				"/>
			<path class="st0" d="M60.6,100.4l-0.1,0.2c-0.6-0.3-0.9-0.2-1.1,0.1l-2.4,4.2c-0.2,0.3-0.1,0.6,0.5,0.9l-0.1,0.2l-2.6-1.5
				c-1.2-0.7-1.5-1.7-1-2.5c0.4-0.7,1.3-1.1,2.4-0.6l0-3c0-0.4-0.2-0.6-0.6-0.8l0.1-0.2l1.1,0.6l-0.1,3.7l1.1,0.6l1.2-2.1
				c0.2-0.4,0.1-0.7-0.4-1l0.1-0.2L60.6,100.4z M57.6,102.7l-1.5-0.8c-0.9-0.5-1.5,0-1.9,0.6c-0.4,0.7-0.2,1.5,0.7,2l0.7,0.4
				c0.4,0.2,0.6,0.2,0.8-0.1L57.6,102.7z"/>
			<path class="st0" d="M54.9,97.1l-0.1,0.2c-0.5-0.4-0.8-0.4-1.1,0l-3,3.9c-0.3,0.3-0.2,0.6,0.3,1l-0.1,0.2l-3.8-2.9l0.4-1.6l0.2,0
				c0,0.7-0.2,1.6,0.9,2.5l0.7,0.5c0.4,0.3,0.7,0.3,0.9,0l1.3-1.7l-1.1-0.8c-0.5-0.4-0.9-0.4-1.5,0.3l-0.2-0.1l1.5-2l0.2,0.1
				c-0.5,0.6-0.4,1.1,0.1,1.5l1.1,0.8l1.5-1.9c0.3-0.3,0.2-0.6-0.2-0.9l-0.7-0.5c-0.8-0.6-1.6-0.7-2.8-0.3l-0.1-0.2L51,94L54.9,97.1
				z"/>
			<path class="st0" d="M47.5,90.9L47.3,91c-0.4-0.5-0.7-0.5-1-0.2L42.6,94c-0.3,0.3-0.3,0.6,0.1,1l-0.2,0.2l-3.1-3.6l0.7-1.5l0.2,0
				c-0.1,0.7-0.5,1.5,0.4,2.6l0.6,0.7c0.3,0.4,0.6,0.4,0.9,0.2l1.6-1.4l-0.9-1c-0.4-0.5-0.9-0.6-1.5,0l-0.1-0.2l1.9-1.7l0.1,0.2
				c-0.6,0.5-0.6,1-0.2,1.5l0.9,1l1.8-1.6c0.3-0.3,0.3-0.6,0-1l-0.6-0.6c-0.7-0.8-1.4-1-2.7-0.9l-0.1-0.2l1.6-0.6L47.5,90.9z"/>
			<path class="st0" d="M43.3,86l-0.2,0.1c-0.3-0.5-0.6-0.5-1-0.5l-2.9,0l-1.3,2.9c-0.1,0.2-0.2,0.4,0.1,0.9l-0.2,0.1l-1.3-1.9
				l0.2-0.1c0.3,0.4,0.5,0.7,0.7,0.6c0,0,0.1-0.1,0.1-0.1l1.1-2.4l-2.4,0c-0.2,0-0.3,0-0.3,0.1c-0.2,0.1-0.1,0.4,0.3,0.9l-0.2,0.1
				L34.8,85l0.2-0.1c0.3,0.4,0.6,0.5,1.1,0.5l2.6,0l1.3-3.1c0.2-0.4,0.2-0.6-0.1-1l0.2-0.1l1.3,1.9l-0.2,0.1
				c-0.3-0.5-0.5-0.7-0.7-0.6c0,0-0.1,0.1-0.1,0.2l-1.1,2.6l2.7,0c0.1,0,0.2,0,0.3-0.1c0.2-0.1,0.1-0.4-0.2-0.9l0.2-0.1L43.3,86z"/>
			<path class="st0" d="M34.2,76.6c1.5-0.7,3.5-0.6,4.3,1.1c0.8,1.7-0.3,3.3-1.8,4c-1.5,0.7-3.5,0.6-4.3-1
				C31.5,79,32.6,77.4,34.2,76.6z M36.4,81.2c1.4-0.7,2.5-2,1.9-3.4c-0.7-1.4-2.4-1.4-3.9-0.7s-2.5,2-1.9,3.4
				C33.2,82,35,81.9,36.4,81.2z"/>
			<path class="st0" d="M36.7,74.3l-0.2,0.1c-0.2-0.6-0.4-0.8-0.8-0.6l-4.7,1.4c-0.3,0.1-0.4,0.3-0.2,1l-0.2,0.1L30,74.6l4.8-3.7
				l-6.1-0.4l-0.5-1.6l0.2-0.1c0.2,0.7,0.4,0.8,0.7,0.7l4.7-1.4c0.4-0.1,0.5-0.4,0.3-1l0.2-0.1l0.7,2.2l-0.2,0.1
				c-0.2-0.6-0.5-0.8-0.8-0.6L29,70.2l0,0.1l6.7,0.4l0,0.1l-5.2,4l0,0.1l5-1.5c0.4-0.1,0.5-0.4,0.3-1l0.2-0.1L36.7,74.3z"/>
			<path class="st0" d="M34.4,66.3l-0.2,0c-0.1-0.6-0.3-0.8-0.7-0.8l-4.8,0.7c-0.4,0.1-0.5,0.3-0.5,0.9l-0.2,0l-0.7-4.7l1.4-0.8
				l0.1,0.1c-0.5,0.5-1.3,1-1.1,2.4l0.1,0.9c0.1,0.5,0.3,0.7,0.7,0.6l2.2-0.3L30.5,64c-0.1-0.6-0.4-0.9-1.3-0.8l0-0.2l2.5-0.4l0,0.2
				c-0.8,0.1-1.1,0.5-1,1.1l0.2,1.4l2.4-0.3c0.4-0.1,0.6-0.3,0.5-0.8l-0.1-0.8c-0.1-1-0.7-1.6-1.8-2.2l0-0.2l1.7,0.4L34.4,66.3z"/>
			<path class="st0" d="M33.6,59.8l-0.2,0c0-0.7-0.2-0.9-0.7-0.9l-4.9,0.1c-0.4,0-0.5,0.2-0.5,0.9l-0.2,0l0-3c0-1.4,0.6-2.1,1.6-2.2
				c0.9,0,1.6,0.5,1.7,1.7l2.6-1.5c0.3-0.2,0.4-0.5,0.4-0.9l0.2,0l0,1.2l-3.2,1.8l0,1.3l2.4,0c0.4,0,0.6-0.2,0.6-0.9l0.2,0
				L33.6,59.8z M30.1,58.5l0-1.7c0-1-0.7-1.3-1.5-1.3c-0.9,0-1.4,0.6-1.4,1.6l0,0.8c0,0.4,0.2,0.7,0.6,0.7L30.1,58.5z"/>
			<path class="st0" d="M33.5,53.3l-0.2,0c0.1-0.6-0.1-0.9-0.5-0.9L28,51.8c-0.4-0.1-0.6,0.2-0.7,0.8l-0.2,0l0.6-4.7l1.6-0.4
				l0.1,0.1c-0.6,0.4-1.5,0.6-1.7,2l-0.1,0.9c-0.1,0.5,0.1,0.7,0.5,0.8l2.2,0.3l0.2-1.4c0.1-0.6-0.2-1-1-1.1l0-0.2l2.5,0.3l0,0.2
				c-0.8-0.1-1.2,0.2-1.3,0.8l-0.2,1.4l2.4,0.3c0.4,0.1,0.7-0.2,0.7-0.6l0.1-0.8c0.1-1-0.2-1.7-1.1-2.6l0.1-0.2l1.5,0.8L33.5,53.3z"
				/>
			<path class="st0" d="M35.1,43.8l-0.2-0.1c0.2-0.6,0.1-0.9-0.3-1L30,41.1c-0.4-0.1-0.6,0-0.8,0.6l-0.2-0.1l1.5-4.5l1.7-0.1l0,0.2
				c-0.7,0.3-1.6,0.3-2,1.7l-0.3,0.8c-0.1,0.4-0.1,0.7,0.3,0.9l2.1,0.7l0.4-1.3c0.2-0.6,0.1-1-0.8-1.3l0.1-0.2l2.4,0.8l-0.1,0.2
				c-0.8-0.3-1.2,0-1.4,0.6l-0.4,1.3l2.3,0.8c0.4,0.1,0.7,0,0.8-0.5l0.3-0.8c0.3-1,0.1-1.7-0.6-2.8l0.1-0.1l1.3,1.1L35.1,43.8z"/>
			<path class="st0" d="M37.2,37.7L37,37.6c0.2-0.5,0.1-0.7-0.1-1.1l-1.4-2.5l-3.1,0.4c-0.2,0-0.5,0.1-0.7,0.6l-0.2-0.1l1-2.1
				l0.2,0.1c-0.2,0.5-0.3,0.8-0.2,0.9c0,0,0.1,0,0.1,0l2.6-0.3l-1.2-2.1c-0.1-0.1-0.1-0.2-0.2-0.2c-0.2-0.1-0.4,0.1-0.6,0.7
				l-0.2-0.1l0.9-1.8l0.2,0.1c-0.2,0.4-0.1,0.7,0.1,1.2l1.3,2.2l3.3-0.4c0.5-0.1,0.6-0.2,0.8-0.6l0.2,0.1l-1,2.1l-0.2-0.1
				c0.2-0.5,0.3-0.8,0.2-0.9c0,0-0.1,0-0.2,0l-2.8,0.3l1.4,2.4c0.1,0.1,0.1,0.2,0.2,0.2c0.2,0.1,0.4-0.1,0.6-0.7l0.2,0.1L37.2,37.7z
				"/>
			<path class="st0" d="M40.7,25.1c1.4,1,2.3,2.7,1.2,4.3c-1.1,1.6-3,1.4-4.4,0.4c-1.4-1-2.3-2.7-1.3-4.2
				C37.3,24,39.3,24.1,40.7,25.1z M37.8,29.3c1.3,0.9,3,1.2,3.9-0.1c0.9-1.3,0-2.8-1.4-3.7c-1.3-0.9-3.1-1.2-3.9,0.1
				C35.6,27,36.5,28.5,37.8,29.3z"/>
			<path class="st0" d="M44,26.1l-0.2-0.2c0.5-0.5,0.5-0.8,0.1-1.1l-3.6-3.4c-0.3-0.2-0.5-0.2-1,0.3l-0.2-0.2l1.1-1.2l5.6,2.3
				l-2.7-5.4l1.1-1.2l0.2,0.2c-0.5,0.5-0.5,0.7-0.2,1l3.6,3.4c0.3,0.3,0.6,0.3,1.1-0.2l0.2,0.2l-1.6,1.7l-0.2-0.2
				c0.5-0.5,0.4-0.8,0.1-1.1l-3.9-3.7l-0.1,0.1l3,6l-0.1,0.1L40.3,21l-0.1,0.1l3.8,3.6c0.3,0.3,0.6,0.3,1.1-0.2l0.2,0.2L44,26.1z"/>
			<path class="st0" d="M49.7,20.1l-0.1-0.2c0.5-0.4,0.6-0.7,0.3-1l-3-3.8c-0.3-0.3-0.6-0.3-1,0.1L45.6,15l3.7-3l1.5,0.8L50.8,13
				c-0.7-0.2-1.5-0.6-2.6,0.3l-0.7,0.6c-0.4,0.3-0.5,0.6-0.2,0.9l1.4,1.7l1.1-0.9c0.5-0.4,0.6-0.8,0.1-1.5l0.2-0.1l1.6,2L51.3,16
				c-0.5-0.6-1-0.7-1.5-0.3l-1.1,0.9l1.5,1.9c0.3,0.3,0.6,0.3,1,0l0.7-0.5c0.8-0.7,1.1-1.4,1-2.6l0.2,0l0.5,1.6L49.7,20.1z"/>
			<path class="st0" d="M54.8,16.1l-0.1-0.2c0.6-0.4,0.6-0.6,0.4-1l-2.5-4.2c-0.2-0.3-0.4-0.4-1,0l-0.1-0.2L54,8.9
				c1.2-0.7,2.2-0.5,2.7,0.3c0.4,0.7,0.3,1.7-0.7,2.3l2.6,1.5c0.3,0.2,0.6,0.1,1-0.1l0.1,0.2l-1.1,0.6l-3.2-1.9l-1.1,0.6l1.2,2
				c0.2,0.4,0.5,0.4,1.1,0.1l0.1,0.2L54.8,16.1z M54.3,12.3l1.4-0.9c0.9-0.5,0.8-1.3,0.4-1.9c-0.4-0.7-1.2-0.9-2-0.4l-0.7,0.4
				c-0.4,0.2-0.5,0.5-0.3,0.8L54.3,12.3z"/>
			<path class="st0" d="M60.4,12.7l-0.1-0.2c0.6-0.2,0.7-0.5,0.5-0.9L59,7.1c-0.2-0.4-0.5-0.4-1-0.2l-0.1-0.2l4.4-1.9L63.4,6
				l-0.1,0.1c-0.6-0.3-1.3-1-2.6-0.4l-0.8,0.4c-0.4,0.2-0.6,0.4-0.4,0.8l0.9,2l1.3-0.5c0.6-0.3,0.8-0.6,0.5-1.4l0.2-0.1l1,2.3
				l-0.2,0.1c-0.3-0.7-0.8-0.9-1.4-0.7l-1.3,0.5l1,2.2c0.2,0.4,0.5,0.5,0.9,0.3l0.8-0.3c1-0.4,1.4-1.1,1.7-2.3l0.2,0l0.1,1.7
				L60.4,12.7z"/>
		</g>
	</g>
</g>
<g>
	<g>
		<path class="st0" d="M165.8,125.1h4.6v0.9h-1.8v4.9h-1V126h-1.8V125.1z"/>
		<path class="st0" d="M172.5,125.1l1.7,4.2h0.1l1.7-4.2h1.3v5.8h-1v-4h-0.1l-1.6,4h-0.7l-1.6-4h0v4h-1v-5.8H172.5z"/>
	</g>
	<g>
		<path class="st0" d="M57.3,129.6c-3.1,0-5.9,1.1-8.1,3.2c-2.6,2.4-3.9,5.6-3.9,9.4c0,3.5,1.1,6.5,3.2,8.9c2.2,2.5,5.1,3.8,8.6,3.8
			c3.5,0,6.4-1.3,8.6-3.8c2.2-2.4,3.3-5.4,3.3-8.9c0-3.3-1.1-6.3-3.2-8.7C63.4,130.9,60.6,129.6,57.3,129.6z M62.3,149.2
			c-1.2,2.1-2.9,3.1-5.3,3.1c-1.8,0-3.2-0.7-4.3-2c-1.5-1.9-2.2-4.6-2.2-8.2c0-3.5,0.7-6.1,2.2-7.9c1.1-1.4,2.5-2,4.4-2
			c2.5,0,4.3,1.1,5.4,3.3c0.9,1.7,1.4,4.1,1.4,7.1C63.7,145.3,63.2,147.5,62.3,149.2z"/>
		<path class="st0" d="M140.3,136.7c0-1.4-0.4-2.7-1.3-3.7c-0.8-1.1-2-1.8-3.3-2.2c-1-0.3-2.2-0.5-3.6-0.5l0,0H132
			c-0.6,0-1.2,0-1.9,0l-0.1,0h-6.9c0,0-0.1,0.2,0.2,0.3c0.4,0.1,1,0.7,1.1,1.6v22.3h4.5v-10.6h1.4l7.7,10.6h5.3l-8.2-11.4
			C138.5,141.9,140.3,139.8,140.3,136.7z M133.4,140.3c-1.1,0.7-2.4,1-4.1,1H129V133c0.8-0.1,1.5-0.2,2-0.2c1.3,0,2.3,0.4,3.1,1.1
			c0.8,0.8,1.1,1.7,1.1,3C135.1,138.4,134.6,139.5,133.4,140.3z"/>
		<path class="st0" d="M163.1,132.7v-2.6h-15.7v0h-1.3c0,0-0.1,0.2,0.2,0.3c0.4,0.1,1.1,0.7,1.2,1.6l0,0v22.3h15.7v-2.6h-9.9
			c-0.7,0-0.9-0.1-1-0.1c-0.2-0.1-0.2-0.4-0.2-0.6c0-0.1,0-0.5,0-1.2V143h9.2v-2.6H152v-7.7H163.1z"/>
		<path class="st0" d="M0.7,130.1c0,0-0.2,0.2,0.1,0.3c0.4,0.1,1,0.7,1.1,1.6v22.3h15.7v-2.6H7.8c-0.7,0-0.9-0.1-1-0.1
			c-0.2-0.1-0.2-0.4-0.2-0.6c0-0.1,0-0.5,0-1.2V143h9.2v-2.6H6.6v-7.7h11.1v-2.6H2.4L0.7,130.1z"/>
		<path class="st0" d="M95.8,130.2h-3.2l-7.7,16.9L77,130.2l-3.5,0h-2.2c0,0-0.1,0.2,0.2,0.3c0.4,0.1,1.1,0.7,1.2,1.6v22.2h2.8
			v-16.8l7.7,16.8h1.4l7.7-16.8v16.8h4.6V132c0.1-0.9,0.8-1.5,1.2-1.6c0.3-0.1,0.2-0.3,0.2-0.3L95.8,130.2z"/>
		<path class="st0" d="M104.7,130.2l-2.5,0c0,0-0.2,0.2,0.1,0.3c0.4,0.1,1.1,0.7,1.2,1.6v22.3h15.7v-2.6h-9.9c-0.7,0-0.9-0.1-1-0.1
			c-0.2-0.1-0.2-0.4-0.2-0.6c0-0.1,0-0.5,0-1.2V143h9.2v-2.6H108v-7.7h11.1v-2.6L104.7,130.2L104.7,130.2z"/>
		<path class="st0" d="M42.1,130.2h-2.3l-6.6,8.5l-5.6-8.5l-5.2,0l-1,0c0,0-0.1,0.2,0.2,0.3c0.3,0.1,0.7,0.3,1.2,0.9l7.6,11.1
			l-9.5,11.9h3.6l7.4-9.5l6.2,9.5h5.6L34.7,141l7.4-9.3l0,0c0,0,0,0,0,0l0.6-0.8c0.3-0.3,0.6-0.4,0.8-0.5c0.3-0.1,0.2-0.3,0.2-0.3
			L42.1,130.2z"/>
	</g>
</g>
</svg>
